<mxfile host="app.diagrams.net" agent="Mozilla/5.0 (Windows NT 10.0; Win64; x64) AppleWebKit/537.36 (KHTML, like Gecko) Chrome/136.0.0.0 Safari/537.36" version="27.0.9">
  <diagram name="Page-1" id="QC7N5mNSghha-G6waI-t">
    <mxGraphModel dx="992" dy="585" grid="1" gridSize="10" guides="1" tooltips="1" connect="1" arrows="1" fold="1" page="1" pageScale="1" pageWidth="850" pageHeight="1100" math="0" shadow="0">
      <root>
        <mxCell id="0" />
        <mxCell id="1" parent="0" />
        <mxCell id="Acw2REB8Gn73wfLOt0MF-15" value="" style="whiteSpace=wrap;html=1;aspect=fixed;" parent="1" vertex="1">
          <mxGeometry x="220" y="30" width="450" height="450" as="geometry" />
        </mxCell>
        <mxCell id="Acw2REB8Gn73wfLOt0MF-18" value="Registracija" style="ellipse;whiteSpace=wrap;html=1;" parent="1" vertex="1">
          <mxGeometry x="530" y="40" width="100" height="30" as="geometry" />
        </mxCell>
        <mxCell id="7vwuo-Z9RF0QcLzR8JBB-1" value="Prijava" style="ellipse;whiteSpace=wrap;html=1;" vertex="1" parent="1">
          <mxGeometry x="530" y="80" width="100" height="30" as="geometry" />
        </mxCell>
        <mxCell id="7vwuo-Z9RF0QcLzR8JBB-3" value="Pregled dostupnih hodočašća" style="ellipse;whiteSpace=wrap;html=1;" vertex="1" parent="1">
          <mxGeometry x="527.5" y="120" width="110" height="40" as="geometry" />
        </mxCell>
        <mxCell id="7vwuo-Z9RF0QcLzR8JBB-4" value="Prijava na hodočašće&amp;nbsp;" style="ellipse;whiteSpace=wrap;html=1;" vertex="1" parent="1">
          <mxGeometry x="480" y="180" width="90" height="40" as="geometry" />
        </mxCell>
        <mxCell id="7vwuo-Z9RF0QcLzR8JBB-6" value="" style="endArrow=none;html=1;rounded=0;fontSize=12;startSize=8;endSize=8;curved=1;entryX=0.1;entryY=0.5;entryDx=0;entryDy=0;entryPerimeter=0;exitX=1;exitY=0.5;exitDx=0;exitDy=0;" edge="1" parent="1" source="Acw2REB8Gn73wfLOt0MF-18" target="7vwuo-Z9RF0QcLzR8JBB-10">
          <mxGeometry width="50" height="50" relative="1" as="geometry">
            <mxPoint x="580" y="220" as="sourcePoint" />
            <mxPoint x="732.5" y="89" as="targetPoint" />
          </mxGeometry>
        </mxCell>
        <mxCell id="7vwuo-Z9RF0QcLzR8JBB-7" value="" style="endArrow=none;html=1;rounded=0;fontSize=12;startSize=8;endSize=8;curved=1;entryX=0.1;entryY=0.5;entryDx=0;entryDy=0;entryPerimeter=0;exitX=1;exitY=0.5;exitDx=0;exitDy=0;" edge="1" parent="1" source="7vwuo-Z9RF0QcLzR8JBB-1" target="7vwuo-Z9RF0QcLzR8JBB-10">
          <mxGeometry width="50" height="50" relative="1" as="geometry">
            <mxPoint x="580" y="220" as="sourcePoint" />
            <mxPoint x="720" y="110" as="targetPoint" />
          </mxGeometry>
        </mxCell>
        <mxCell id="7vwuo-Z9RF0QcLzR8JBB-8" value="" style="endArrow=none;html=1;rounded=0;fontSize=12;startSize=8;endSize=8;curved=1;exitX=1;exitY=0.5;exitDx=0;exitDy=0;" edge="1" parent="1" source="7vwuo-Z9RF0QcLzR8JBB-30">
          <mxGeometry width="50" height="50" relative="1" as="geometry">
            <mxPoint x="630" y="151" as="sourcePoint" />
            <mxPoint x="740" y="130" as="targetPoint" />
          </mxGeometry>
        </mxCell>
        <mxCell id="7vwuo-Z9RF0QcLzR8JBB-9" value="" style="endArrow=none;html=1;rounded=0;fontSize=12;startSize=8;endSize=8;curved=1;entryX=0.1;entryY=0.5;entryDx=0;entryDy=0;entryPerimeter=0;exitX=1;exitY=0.5;exitDx=0;exitDy=0;" edge="1" parent="1" source="7vwuo-Z9RF0QcLzR8JBB-3" target="7vwuo-Z9RF0QcLzR8JBB-10">
          <mxGeometry width="50" height="50" relative="1" as="geometry">
            <mxPoint x="580" y="220" as="sourcePoint" />
            <mxPoint x="745" y="125" as="targetPoint" />
          </mxGeometry>
        </mxCell>
        <mxCell id="7vwuo-Z9RF0QcLzR8JBB-10" value="" style="shape=actor;whiteSpace=wrap;html=1;" vertex="1" parent="1">
          <mxGeometry x="740" y="70" width="50" height="70" as="geometry" />
        </mxCell>
        <mxCell id="7vwuo-Z9RF0QcLzR8JBB-14" value="&lt;font style=&quot;font-size: 12px;&quot;&gt;KORISNIK&lt;/font&gt;&lt;div&gt;&lt;font style=&quot;font-size: 12px;&quot;&gt;(ŽUPLJANIN)&lt;/font&gt;&lt;/div&gt;" style="text;html=1;align=center;verticalAlign=middle;resizable=0;points=[];autosize=1;strokeColor=none;fillColor=none;fontSize=16;" vertex="1" parent="1">
          <mxGeometry x="715" y="131" width="100" height="50" as="geometry" />
        </mxCell>
        <mxCell id="7vwuo-Z9RF0QcLzR8JBB-15" value="" style="shape=actor;whiteSpace=wrap;html=1;" vertex="1" parent="1">
          <mxGeometry x="740" y="340" width="50" height="70" as="geometry" />
        </mxCell>
        <mxCell id="7vwuo-Z9RF0QcLzR8JBB-16" value="&lt;font style=&quot;font-size: 12px;&quot;&gt;SUSTAV&lt;/font&gt;" style="text;html=1;align=center;verticalAlign=middle;resizable=0;points=[];autosize=1;strokeColor=none;fillColor=none;fontSize=16;" vertex="1" parent="1">
          <mxGeometry x="729" y="411" width="70" height="30" as="geometry" />
        </mxCell>
        <mxCell id="7vwuo-Z9RF0QcLzR8JBB-17" value="" style="endArrow=none;html=1;rounded=0;fontSize=12;startSize=8;endSize=8;curved=1;entryX=-0.009;entryY=0.867;entryDx=0;entryDy=0;entryPerimeter=0;exitX=1;exitY=0.5;exitDx=0;exitDy=0;" edge="1" parent="1" source="7vwuo-Z9RF0QcLzR8JBB-4" target="7vwuo-Z9RF0QcLzR8JBB-10">
          <mxGeometry width="50" height="50" relative="1" as="geometry">
            <mxPoint x="560" y="220" as="sourcePoint" />
            <mxPoint x="610" y="170" as="targetPoint" />
          </mxGeometry>
        </mxCell>
        <mxCell id="7vwuo-Z9RF0QcLzR8JBB-18" value="" style="shape=actor;whiteSpace=wrap;html=1;" vertex="1" parent="1">
          <mxGeometry x="80" y="70" width="50" height="70" as="geometry" />
        </mxCell>
        <mxCell id="7vwuo-Z9RF0QcLzR8JBB-19" value="&lt;span style=&quot;font-size: 12px;&quot;&gt;DJELATNIK&lt;/span&gt;" style="text;html=1;align=center;verticalAlign=middle;resizable=0;points=[];autosize=1;strokeColor=none;fillColor=none;fontSize=16;" vertex="1" parent="1">
          <mxGeometry x="60" y="141" width="90" height="30" as="geometry" />
        </mxCell>
        <mxCell id="7vwuo-Z9RF0QcLzR8JBB-20" value="" style="shape=actor;whiteSpace=wrap;html=1;" vertex="1" parent="1">
          <mxGeometry x="79" y="341" width="50" height="70" as="geometry" />
        </mxCell>
        <mxCell id="7vwuo-Z9RF0QcLzR8JBB-21" value="&lt;font style=&quot;font-size: 12px;&quot;&gt;ADMINISTRATOR&lt;/font&gt;" style="text;html=1;align=center;verticalAlign=middle;resizable=0;points=[];autosize=1;strokeColor=none;fillColor=none;fontSize=16;" vertex="1" parent="1">
          <mxGeometry x="44" y="410" width="120" height="30" as="geometry" />
        </mxCell>
        <mxCell id="7vwuo-Z9RF0QcLzR8JBB-23" value="Autentifikacija" style="ellipse;whiteSpace=wrap;html=1;" vertex="1" parent="1">
          <mxGeometry x="525" y="360" width="105" height="40" as="geometry" />
        </mxCell>
        <mxCell id="7vwuo-Z9RF0QcLzR8JBB-24" value="Autorizacija" style="ellipse;whiteSpace=wrap;html=1;" vertex="1" parent="1">
          <mxGeometry x="527.5" y="411" width="105" height="40" as="geometry" />
        </mxCell>
        <mxCell id="7vwuo-Z9RF0QcLzR8JBB-25" value="" style="endArrow=none;html=1;rounded=0;fontSize=12;startSize=8;endSize=8;curved=1;entryX=0.1;entryY=0.5;entryDx=0;entryDy=0;entryPerimeter=0;exitX=1;exitY=0.5;exitDx=0;exitDy=0;" edge="1" parent="1" source="7vwuo-Z9RF0QcLzR8JBB-23" target="7vwuo-Z9RF0QcLzR8JBB-15">
          <mxGeometry width="50" height="50" relative="1" as="geometry">
            <mxPoint x="650" y="220" as="sourcePoint" />
            <mxPoint x="700" y="170" as="targetPoint" />
          </mxGeometry>
        </mxCell>
        <mxCell id="7vwuo-Z9RF0QcLzR8JBB-26" value="" style="endArrow=none;html=1;rounded=0;fontSize=12;startSize=8;endSize=8;curved=1;entryX=0;entryY=0.75;entryDx=0;entryDy=0;exitX=1;exitY=0.5;exitDx=0;exitDy=0;" edge="1" parent="1" source="7vwuo-Z9RF0QcLzR8JBB-24" target="7vwuo-Z9RF0QcLzR8JBB-15">
          <mxGeometry width="50" height="50" relative="1" as="geometry">
            <mxPoint x="650" y="220" as="sourcePoint" />
            <mxPoint x="700" y="170" as="targetPoint" />
          </mxGeometry>
        </mxCell>
        <mxCell id="7vwuo-Z9RF0QcLzR8JBB-28" value="Unos/uređivanje&lt;div&gt;obavijesti&lt;/div&gt;" style="ellipse;whiteSpace=wrap;html=1;" vertex="1" parent="1">
          <mxGeometry x="257.5" y="50" width="110" height="40" as="geometry" />
        </mxCell>
        <mxCell id="7vwuo-Z9RF0QcLzR8JBB-30" value="Pregled župnih obavijesti i aktivnosti" style="ellipse;whiteSpace=wrap;html=1;" vertex="1" parent="1">
          <mxGeometry x="405" y="230" width="120" height="50" as="geometry" />
        </mxCell>
        <mxCell id="7vwuo-Z9RF0QcLzR8JBB-32" value="Provjera i odobrenje&lt;div&gt;prijave&lt;/div&gt;" style="ellipse;whiteSpace=wrap;html=1;" vertex="1" parent="1">
          <mxGeometry x="300" y="90" width="120" height="50" as="geometry" />
        </mxCell>
        <mxCell id="7vwuo-Z9RF0QcLzR8JBB-33" value="Evidencija korisnika" style="ellipse;whiteSpace=wrap;html=1;" vertex="1" parent="1">
          <mxGeometry x="265" y="141" width="120" height="40" as="geometry" />
        </mxCell>
        <mxCell id="7vwuo-Z9RF0QcLzR8JBB-34" value="Unos, uređivanje i brisanje novih obavijesti" style="ellipse;whiteSpace=wrap;html=1;" vertex="1" parent="1">
          <mxGeometry x="242.5" y="240" width="140" height="50" as="geometry" />
        </mxCell>
        <mxCell id="7vwuo-Z9RF0QcLzR8JBB-35" value="Upravljanje sustavom" style="ellipse;whiteSpace=wrap;html=1;" vertex="1" parent="1">
          <mxGeometry x="255" y="340" width="130" height="39" as="geometry" />
        </mxCell>
        <mxCell id="7vwuo-Z9RF0QcLzR8JBB-36" value="Upravljanje djelatnicima&lt;div&gt;i korisnicima&lt;/div&gt;" style="ellipse;whiteSpace=wrap;html=1;" vertex="1" parent="1">
          <mxGeometry x="242.5" y="391" width="140" height="49" as="geometry" />
        </mxCell>
        <mxCell id="7vwuo-Z9RF0QcLzR8JBB-40" style="edgeStyle=none;curved=1;rounded=0;orthogonalLoop=1;jettySize=auto;html=1;exitX=0.5;exitY=1;exitDx=0;exitDy=0;fontSize=12;startSize=8;endSize=8;" edge="1" parent="1" source="7vwuo-Z9RF0QcLzR8JBB-36" target="7vwuo-Z9RF0QcLzR8JBB-36">
          <mxGeometry relative="1" as="geometry" />
        </mxCell>
        <mxCell id="7vwuo-Z9RF0QcLzR8JBB-41" value="" style="endArrow=none;html=1;rounded=0;fontSize=12;startSize=8;endSize=8;curved=1;entryX=0.9;entryY=0.5;entryDx=0;entryDy=0;entryPerimeter=0;exitX=0;exitY=0.5;exitDx=0;exitDy=0;" edge="1" parent="1" source="7vwuo-Z9RF0QcLzR8JBB-30" target="7vwuo-Z9RF0QcLzR8JBB-18">
          <mxGeometry width="50" height="50" relative="1" as="geometry">
            <mxPoint x="560" y="220" as="sourcePoint" />
            <mxPoint x="610" y="170" as="targetPoint" />
          </mxGeometry>
        </mxCell>
        <mxCell id="7vwuo-Z9RF0QcLzR8JBB-42" value="" style="endArrow=none;html=1;rounded=0;fontSize=12;startSize=8;endSize=8;curved=1;entryX=0.75;entryY=0.25;entryDx=0;entryDy=0;entryPerimeter=0;exitX=0;exitY=0.5;exitDx=0;exitDy=0;" edge="1" parent="1" source="7vwuo-Z9RF0QcLzR8JBB-28" target="7vwuo-Z9RF0QcLzR8JBB-18">
          <mxGeometry width="50" height="50" relative="1" as="geometry">
            <mxPoint x="560" y="220" as="sourcePoint" />
            <mxPoint x="610" y="170" as="targetPoint" />
          </mxGeometry>
        </mxCell>
        <mxCell id="7vwuo-Z9RF0QcLzR8JBB-43" value="" style="endArrow=none;html=1;rounded=0;fontSize=12;startSize=8;endSize=8;curved=1;entryX=0.9;entryY=0.5;entryDx=0;entryDy=0;entryPerimeter=0;exitX=0;exitY=0.5;exitDx=0;exitDy=0;" edge="1" parent="1" source="7vwuo-Z9RF0QcLzR8JBB-32" target="7vwuo-Z9RF0QcLzR8JBB-18">
          <mxGeometry width="50" height="50" relative="1" as="geometry">
            <mxPoint x="560" y="220" as="sourcePoint" />
            <mxPoint x="610" y="170" as="targetPoint" />
          </mxGeometry>
        </mxCell>
        <mxCell id="7vwuo-Z9RF0QcLzR8JBB-44" value="" style="endArrow=none;html=1;rounded=0;fontSize=12;startSize=8;endSize=8;curved=1;entryX=0.9;entryY=0.5;entryDx=0;entryDy=0;entryPerimeter=0;exitX=0;exitY=0.5;exitDx=0;exitDy=0;" edge="1" parent="1" source="7vwuo-Z9RF0QcLzR8JBB-33" target="7vwuo-Z9RF0QcLzR8JBB-18">
          <mxGeometry width="50" height="50" relative="1" as="geometry">
            <mxPoint x="560" y="220" as="sourcePoint" />
            <mxPoint x="610" y="170" as="targetPoint" />
          </mxGeometry>
        </mxCell>
        <mxCell id="7vwuo-Z9RF0QcLzR8JBB-45" value="" style="endArrow=none;html=1;rounded=0;fontSize=12;startSize=8;endSize=8;curved=1;entryX=0.9;entryY=0.5;entryDx=0;entryDy=0;entryPerimeter=0;exitX=0;exitY=1;exitDx=0;exitDy=0;" edge="1" parent="1" source="7vwuo-Z9RF0QcLzR8JBB-30" target="7vwuo-Z9RF0QcLzR8JBB-20">
          <mxGeometry width="50" height="50" relative="1" as="geometry">
            <mxPoint x="560" y="220" as="sourcePoint" />
            <mxPoint x="610" y="170" as="targetPoint" />
          </mxGeometry>
        </mxCell>
        <mxCell id="7vwuo-Z9RF0QcLzR8JBB-46" value="" style="endArrow=none;html=1;rounded=0;fontSize=12;startSize=8;endSize=8;curved=1;entryX=0.9;entryY=0.5;entryDx=0;entryDy=0;entryPerimeter=0;exitX=0;exitY=0.5;exitDx=0;exitDy=0;" edge="1" parent="1" source="7vwuo-Z9RF0QcLzR8JBB-35" target="7vwuo-Z9RF0QcLzR8JBB-20">
          <mxGeometry width="50" height="50" relative="1" as="geometry">
            <mxPoint x="560" y="220" as="sourcePoint" />
            <mxPoint x="610" y="170" as="targetPoint" />
          </mxGeometry>
        </mxCell>
        <mxCell id="7vwuo-Z9RF0QcLzR8JBB-47" value="" style="endArrow=none;html=1;rounded=0;fontSize=12;startSize=8;endSize=8;curved=1;entryX=0.9;entryY=0.5;entryDx=0;entryDy=0;entryPerimeter=0;exitX=0;exitY=0.5;exitDx=0;exitDy=0;" edge="1" parent="1" source="7vwuo-Z9RF0QcLzR8JBB-36" target="7vwuo-Z9RF0QcLzR8JBB-20">
          <mxGeometry width="50" height="50" relative="1" as="geometry">
            <mxPoint x="560" y="220" as="sourcePoint" />
            <mxPoint x="610" y="170" as="targetPoint" />
          </mxGeometry>
        </mxCell>
        <mxCell id="7vwuo-Z9RF0QcLzR8JBB-49" value="" style="endArrow=none;html=1;rounded=0;fontSize=12;startSize=8;endSize=8;curved=1;exitX=0.9;exitY=0.5;exitDx=0;exitDy=0;exitPerimeter=0;entryX=0;entryY=0.5;entryDx=0;entryDy=0;" edge="1" parent="1" source="7vwuo-Z9RF0QcLzR8JBB-20" target="7vwuo-Z9RF0QcLzR8JBB-34">
          <mxGeometry width="50" height="50" relative="1" as="geometry">
            <mxPoint x="450" y="290" as="sourcePoint" />
            <mxPoint x="500" y="240" as="targetPoint" />
          </mxGeometry>
        </mxCell>
        <mxCell id="7vwuo-Z9RF0QcLzR8JBB-51" value="" style="endArrow=none;dashed=1;html=1;rounded=0;fontSize=12;startSize=8;endSize=8;curved=1;entryX=0;entryY=0.5;entryDx=0;entryDy=0;exitX=1;exitY=0.5;exitDx=0;exitDy=0;" edge="1" parent="1" source="7vwuo-Z9RF0QcLzR8JBB-33" target="7vwuo-Z9RF0QcLzR8JBB-4">
          <mxGeometry width="50" height="50" relative="1" as="geometry">
            <mxPoint x="450" y="290" as="sourcePoint" />
            <mxPoint x="500" y="240" as="targetPoint" />
          </mxGeometry>
        </mxCell>
        <mxCell id="7vwuo-Z9RF0QcLzR8JBB-54" value="&lt;font style=&quot;font-size: 11px;&quot;&gt;&amp;lt;&amp;lt;include&amp;gt;&amp;gt;&lt;/font&gt;" style="edgeLabel;html=1;align=center;verticalAlign=middle;resizable=0;points=[];fontSize=12;" vertex="1" connectable="0" parent="7vwuo-Z9RF0QcLzR8JBB-51">
          <mxGeometry x="0.3464" y="1" relative="1" as="geometry">
            <mxPoint x="-9" y="-6" as="offset" />
          </mxGeometry>
        </mxCell>
        <mxCell id="7vwuo-Z9RF0QcLzR8JBB-53" value="" style="endArrow=classic;html=1;rounded=0;fontSize=12;startSize=8;endSize=8;curved=1;" edge="1" parent="1">
          <mxGeometry width="50" height="50" relative="1" as="geometry">
            <mxPoint x="415" y="171" as="sourcePoint" />
            <mxPoint x="385" y="161" as="targetPoint" />
          </mxGeometry>
        </mxCell>
        <mxCell id="7vwuo-Z9RF0QcLzR8JBB-57" value="" style="endArrow=none;dashed=1;html=1;rounded=0;fontSize=12;startSize=8;endSize=8;curved=1;entryX=1;entryY=0.5;entryDx=0;entryDy=0;exitX=0.5;exitY=0;exitDx=0;exitDy=0;" edge="1" parent="1" source="7vwuo-Z9RF0QcLzR8JBB-4" target="7vwuo-Z9RF0QcLzR8JBB-32">
          <mxGeometry width="50" height="50" relative="1" as="geometry">
            <mxPoint x="310" y="330" as="sourcePoint" />
            <mxPoint x="360" y="280" as="targetPoint" />
          </mxGeometry>
        </mxCell>
        <mxCell id="7vwuo-Z9RF0QcLzR8JBB-58" value="&lt;font style=&quot;font-size: 11px;&quot;&gt;&amp;lt;&amp;lt;extend&amp;gt;&amp;gt;&lt;/font&gt;" style="edgeLabel;html=1;align=center;verticalAlign=middle;resizable=0;points=[];fontSize=12;" vertex="1" connectable="0" parent="7vwuo-Z9RF0QcLzR8JBB-57">
          <mxGeometry x="-0.0514" y="-1" relative="1" as="geometry">
            <mxPoint as="offset" />
          </mxGeometry>
        </mxCell>
        <mxCell id="7vwuo-Z9RF0QcLzR8JBB-59" value="" style="endArrow=classic;html=1;rounded=0;fontSize=12;startSize=8;endSize=8;curved=1;entryX=0.5;entryY=0;entryDx=0;entryDy=0;" edge="1" parent="1" target="7vwuo-Z9RF0QcLzR8JBB-4">
          <mxGeometry width="50" height="50" relative="1" as="geometry">
            <mxPoint x="510" y="170" as="sourcePoint" />
            <mxPoint x="360" y="280" as="targetPoint" />
          </mxGeometry>
        </mxCell>
      </root>
    </mxGraphModel>
  </diagram>
</mxfile>
